<svg width="21" height="13" viewBox="0 0 21 13" fill="none" xmlns="http://www.w3.org/2000/svg">
    <path d="M17.271 3.90633C16.4898 3.63728 15.8002 3.15351 15.2814 2.5105C14.7096 1.79408 13.9815 1.21793 13.1528 0.82615C12.3241 0.434366 11.4167 0.237319 10.5002 0.250084C9.26721 0.162767 8.0466 0.543048 7.08142 1.3152C6.11623 2.08734 5.47729 3.1947 5.29183 4.41675C5.65711 3.80555 6.20689 3.32599 6.86203 3.04708C7.51718 2.76818 8.24391 2.70431 8.93766 2.86467C9.71755 3.14155 10.406 3.62814 10.9272 4.27092C11.5022 4.98162 12.2317 5.55181 13.0602 5.93809C13.8888 6.32438 14.7945 6.51659 15.7085 6.50008C16.9414 6.5874 18.1621 6.20712 19.1272 5.43497C20.0924 4.66282 20.7314 3.55546 20.9168 2.33342C20.5582 2.95193 20.0102 3.43873 19.3537 3.72196C18.6972 4.00519 17.967 4.06983 17.271 3.90633ZM3.72933 9.09383C4.51052 9.36289 5.20008 9.84666 5.71891 10.4897C6.29074 11.2061 7.01885 11.7822 7.84756 12.174C8.67626 12.5658 9.5836 12.7628 10.5002 12.7501C11.7331 12.8374 12.9537 12.4571 13.9189 11.685C14.8841 10.9128 15.523 9.80546 15.7085 8.58342C15.3432 9.19462 14.7934 9.67418 14.1383 9.95309C13.4831 10.232 12.7564 10.2959 12.0627 10.1355C11.2828 9.85862 10.5943 9.37203 10.0731 8.72925C9.49658 8.02031 8.76678 7.45137 7.93861 7.06525C7.11044 6.67913 6.20548 6.4859 5.29183 6.50008C4.05888 6.41277 2.83827 6.79305 1.87309 7.5652C0.9079 8.33734 0.268957 9.4447 0.0834961 10.6668C0.442149 10.0482 0.990171 9.56143 1.64666 9.27821C2.30314 8.99498 3.0333 8.93034 3.72933 9.09383Z" fill="black"/>
</svg> 